<?xml version="1.0"?><svg version="1.2" baseProfile="tiny-ps" viewBox="0 0 300 300" xmlns="http://www.w3.org/2000/svg" xmlns:xlink="http://www.w3.org/1999/xlink"><title>JRICOLCOL</title><g><g fill="#fff" transform="matrix(.1 0 0 -.1 0 300)"><path d="M0 1500V0h3000v3000H0V1500z"/></g><g fill="#eae0d9" transform="matrix(.1 0 0 -.1 0 300)"><path d="m790 2505-12-15 27-10c14-5 42-10 60-10 19 0 46-5 60-12l26-12 16-30 16-31 4-510 5-510-11-235-10-235-17-60c-8-33-30-87-47-119l-32-59-49-49c-27-27-67-58-88-70l-38-22v-36h15c26 0 157 70 227 121 79 59 174 158 211 221 14 25 37 78 51 119l25 74 11 100 11 100-3 649-3 649-221 4-221 4-13-16zm530-44v-60l31 11 31 11 68-6 67-6 46-21 46-22 41-45 42-44 21-47 20-47 5-107 4-106-20-69-21-68-30-36-30-36-38-19-38-18h-85l-85 1-37 11-38 10v-127l107-3 107-3 83-115c46-63 109-151 141-195 31-44 94-119 140-166l83-87 52-23 52-24h370v29l-62 13c-71 14-108 31-176 81l-48 34-83 97c-97 111-346 421-353 437l-4 11 61 59 62 59 49 73 49 73 14 52c8 29 18 73 21 98l7 46-16 64-16 64-38 55-37 55-46 31c-85 57-214 83-406 84h-113v-59z"/></g><g fill="#ffbe96" transform="matrix(.1 0 0 -.1 0 300)"><path d="M797 2514c-4-4-7-13-7-19v-12l62-7 62-6 22-15c13-8 29-25 36-37l13-23-1-715V965l-16-82-16-81-31-64-30-64-41-46c-22-25-65-63-96-83l-55-37 4-11 4-12 24 3c13 1 60 23 105 48l81 46 74 62 74 62 52 72 52 72 21 58c12 31 28 89 37 127l14 70 2 155c1 85 1 403-1 705l-2 550-218 3-218 3-7-7zm561-1-38-4v-95l83 4 82 4 55-21 55-21 37-30 37-31 31-63 32-64 9-72 9-72-10-70-10-71-21-46c-23-53-61-96-103-118l-29-15-76-5-76-4-52 14-53 14v-127h215l80-112c218-306 312-418 390-463l40-24 65-11 65-11 140 3 140 3v30l-53 6-52 7-55 27-55 26-56 51c-65 60-151 161-333 388l-131 165 45 38c25 22 67 67 95 102l50 63 33 68 32 69v210l-24 45c-13 25-36 61-52 81l-28 36-59 31-59 31-64 16-64 15-115 4c-63 2-132 2-152-1z"/></g><g fill="#ff924d" transform="matrix(.1 0 0 -.1 0 300)"><path d="M797 2514c-4-4-7-13-7-19v-12l62-7 62-6 22-15c13-8 29-25 36-37l13-23-1-715V965l-16-82-16-81-31-64-30-64-41-46c-22-25-65-63-96-83l-55-37 4-11 4-12 24 3c13 1 60 23 105 48l81 46 74 62 74 62 52 72 52 72 21 58c12 31 28 89 37 127l14 70 2 155c1 85 1 403-1 705l-2 550-218 3-218 3-7-7zm523-51v-48l95 3 94 3 44-19c25-11 63-37 87-58l42-38 23-46c13-25 29-74 36-108l12-63-6-78-6-79-20-51c-11-29-31-67-45-86l-25-33-46-22-46-22-102 4c-56 3-110 8-119 13l-18 7v-112h94c52 0 102-3 110-6l17-6 111-157c147-205 210-284 281-353l58-57 57-22 57-21 166-5 166-6 8 12c10 18 1 23-56 32-140 22-211 86-516 467l-155 193 86 89 85 90 43 87 43 86v182l-26 56c-15 31-43 75-64 97l-37 41-51 25-52 24-77 16-77 16h-271v-47z"/></g><g fill="#8c8c8c" transform="matrix(.1 0 0 -.1 0 300)"><path d="M797 2514c-4-4-7-13-7-19v-12l62-7 62-6 22-15c13-8 29-25 36-37l13-23-1-715V965l-16-82-16-81-31-64-30-64-41-46c-22-25-65-63-96-83l-55-37 4-11 4-12 24 3c13 1 60 23 105 48l81 46 74 62 74 62 52 72 52 72 21 58c12 31 28 89 37 127l14 70 2 155c1 85 1 403-1 705l-2 550-218 3-218 3-7-7z"/></g><g fill="#010101" transform="matrix(.1 0 0 -.1 0 300)"><path d="m792 2498 5-13 59-6 59-6 22-13c12-8 28-25 35-39l13-24v-741l-1-741-22-79-22-78-30-52-29-52-58-56c-32-30-73-63-91-72s-32-21-32-26v-10h20c28 0 111 43 197 102l73 50 67 72 68 71 33 62c18 34 42 97 54 140l22 78 4 723 3 722H788l4-12z"/></g></g></svg>